<svg width="32" height="32" viewBox="0 0 32 32" xmlns="http://www.w3.org/2000/svg">
<path fill-rule="evenodd" clip-rule="evenodd" d="M16 5.33366C10.109 5.33366 5.33335 10.1093 5.33335 16.0003C5.33335 21.8914 10.109 26.667 16 26.667C21.8911 26.667 26.6667 21.8914 26.6667 16.0003C26.6667 10.1093 21.8911 5.33366 16 5.33366ZM2.66669 16.0003C2.66669 8.63653 8.63622 2.66699 16 2.66699C23.3638 2.66699 29.3334 8.63653 29.3334 16.0003C29.3334 23.3641 23.3638 29.3337 16 29.3337C8.63622 29.3337 2.66669 23.3641 2.66669 16.0003Z" />
<path fill-rule="evenodd" clip-rule="evenodd" d="M13.7238 11.0575C14.2445 10.5368 15.0888 10.5368 15.6095 11.0575L19.6095 15.0575C20.1302 15.5782 20.1302 16.4224 19.6095 16.9431L15.6095 20.9431C15.0888 21.4638 14.2445 21.4638 13.7238 20.9431C13.2031 20.4224 13.2031 19.5782 13.7238 19.0575L16.781 16.0003L13.7238 12.9431C13.2031 12.4224 13.2031 11.5782 13.7238 11.0575Z" />
</svg>
