<svg width="32" height="32" viewBox="0 0 32 32" fill="none" xmlns="http://www.w3.org/2000/svg">
<path fill-rule="evenodd" clip-rule="evenodd" d="M16.0003 5.33335C10.1093 5.33335 5.33366 10.109 5.33366 16C5.33366 21.8911 10.1093 26.6667 16.0003 26.6667C21.8914 26.6667 26.667 21.8911 26.667 16C26.667 10.109 21.8914 5.33335 16.0003 5.33335ZM2.66699 16C2.66699 8.63622 8.63653 2.66669 16.0003 2.66669C23.3641 2.66669 29.3337 8.63622 29.3337 16C29.3337 23.3638 23.3641 29.3334 16.0003 29.3334C8.63653 29.3334 2.66699 23.3638 2.66699 16Z"/>
<path fill-rule="evenodd" clip-rule="evenodd" d="M13.7235 11.0572C14.2442 10.5365 15.0885 10.5365 15.6092 11.0572L19.6092 15.0572C20.1298 15.5779 20.1298 16.4221 19.6092 16.9428L15.6092 20.9428C15.0885 21.4635 14.2442 21.4635 13.7235 20.9428C13.2028 20.4221 13.2028 19.5779 13.7235 19.0572L16.7807 16L13.7235 12.9428C13.2028 12.4221 13.2028 11.5779 13.7235 11.0572Z"/>
</svg>
