<svg width="33" height="32" viewBox="0 0 33 32" fill="none" xmlns="http://www.w3.org/2000/svg">
<path fill-rule="evenodd" clip-rule="evenodd" d="M15.5572 4.39052C18.287 1.66068 22.713 1.66068 25.4428 4.39052C28.0946 7.04236 28.1704 11.2948 25.6701 14.0381L25.4428 14.2761L16.7761 22.9428C15.1509 24.5681 12.5158 24.5681 10.8905 22.9428C9.32776 21.38 9.26765 18.8837 10.7102 17.2491L10.8905 17.0572L19.5572 8.39052C20.0779 7.86982 20.9221 7.86982 21.4428 8.39052C21.9234 8.87116 21.9604 9.62747 21.5537 10.1505L21.4428 10.2761L12.7761 18.9428C12.1923 19.5267 12.1923 20.4733 12.7761 21.0572C13.3183 21.5994 14.1733 21.6381 14.7601 21.1734L14.8905 21.0572L23.5572 12.3905C25.2456 10.7021 25.2456 7.96458 23.5572 6.27614C21.9313 4.65023 19.3326 4.59001 17.6346 6.09548L17.4428 6.27614L8.77613 14.9428C5.98312 17.7358 5.98312 22.2642 8.77613 25.0572C11.4893 27.7704 15.8402 27.8479 18.6469 25.2897L18.8905 25.0572L27.5572 16.3905C28.0779 15.8698 28.9221 15.8698 29.4428 16.3905C29.9234 16.8712 29.9604 17.6275 29.5537 18.1505L29.4428 18.2761L20.7761 26.9428C16.9417 30.7772 10.7249 30.7772 6.89051 26.9428C3.14132 23.1936 3.058 17.1667 6.64057 13.3163L6.89051 13.0572L15.5572 4.39052Z" fill="#131313"/>
</svg>
