<svg width="32" height="32" viewBox="0 0 32 32" xmlns="http://www.w3.org/2000/svg">
<path d="M16 0C7.16418 0 0 7.16418 0 16C0 24.8358 7.16418 32 16 32C24.8358 32 32 24.8358 32 16C32 7.16418 24.8426 0 16 0ZM16 29.38C8.62431 29.38 2.62687 23.3825 2.62687 16.0068C2.62687 8.63113 8.62431 2.63369 16 2.63369C23.3757 2.63369 29.3731 8.63113 29.3731 16.0068C29.3731 23.3825 23.3757 29.38 16 29.38Z" />
<path d="M25.8934 12.8749C25.8934 12.8612 25.8865 12.8476 25.8865 12.8408C25.8797 12.8135 25.8797 12.793 25.8729 12.7725C25.8661 12.7589 25.8661 12.7453 25.8592 12.7316C25.8524 12.7111 25.8456 12.6907 25.8388 12.6702C25.832 12.6566 25.8251 12.6429 25.8183 12.6293C25.8115 12.6088 25.7978 12.5883 25.791 12.5747C25.7842 12.561 25.7774 12.5474 25.7637 12.5337C25.7501 12.5133 25.7433 12.4996 25.7296 12.4792C25.7228 12.4655 25.7091 12.4519 25.7023 12.445C25.6887 12.4314 25.675 12.4109 25.6614 12.3973C25.6477 12.3836 25.6409 12.3768 25.6273 12.3632C25.6136 12.3495 25.5931 12.3359 25.5795 12.3222C25.5659 12.3154 25.5522 12.3018 25.5386 12.2949C25.5317 12.2949 25.5317 12.2881 25.5249 12.2813L16.4776 6.24973C16.191 6.05868 15.8226 6.05868 15.536 6.24973L6.48867 12.2813C6.48185 12.2813 6.48185 12.2881 6.47502 12.2949C6.46138 12.3018 6.44773 12.3154 6.43409 12.3222C6.42044 12.3359 6.39997 12.3495 6.38632 12.3632C6.37268 12.3768 6.36586 12.3836 6.35221 12.3973C6.33856 12.4109 6.32492 12.4246 6.31127 12.445C6.30445 12.4587 6.2908 12.4723 6.28398 12.4792C6.27033 12.4928 6.25669 12.5133 6.24986 12.5337C6.24304 12.5474 6.23622 12.561 6.22257 12.5747C6.20893 12.5951 6.2021 12.6088 6.19528 12.6293C6.18846 12.6429 6.18163 12.6566 6.17481 12.6702C6.16799 12.6907 6.16116 12.7111 6.15434 12.7316C6.14752 12.7453 6.14752 12.7589 6.1407 12.7725C6.13387 12.793 6.12705 12.8203 6.12705 12.8408C6.12705 12.8544 6.12023 12.8681 6.12023 12.8749C6.1134 12.909 6.1134 12.9499 6.1134 12.9841V19.0156C6.1134 19.0497 6.1134 19.0907 6.12023 19.1248C6.12023 19.1384 6.12705 19.1521 6.12705 19.1589C6.13387 19.1862 6.13387 19.2067 6.1407 19.2271C6.14752 19.2408 6.14752 19.2544 6.15434 19.2681C6.16116 19.2885 6.16799 19.309 6.17481 19.3295C6.18163 19.3431 6.18846 19.3568 6.19528 19.3704C6.2021 19.3909 6.21575 19.4114 6.22257 19.425C6.22939 19.4386 6.23622 19.4523 6.24986 19.4659C6.26351 19.4864 6.27033 19.5 6.28398 19.5205C6.2908 19.5342 6.30445 19.5478 6.31127 19.5546C6.32492 19.5683 6.33856 19.5887 6.35221 19.6024C6.36586 19.616 6.37268 19.6229 6.38632 19.6365C6.39997 19.6502 6.42044 19.6638 6.43409 19.6774C6.44773 19.6843 6.46138 19.6979 6.47502 19.7047C6.48185 19.7047 6.48185 19.7116 6.48867 19.7184L15.536 25.7499C15.6793 25.8455 15.843 25.8932 16.0068 25.8932C16.1705 25.8932 16.3343 25.8455 16.4776 25.7499L25.5181 19.7252C25.5249 19.7252 25.5249 19.7184 25.5317 19.7116C25.5454 19.7047 25.559 19.6911 25.5727 19.6843C25.5863 19.6706 25.6068 19.657 25.6204 19.6433C25.6341 19.6297 25.6409 19.6229 25.6546 19.6092C25.6682 19.5956 25.6818 19.5819 25.6955 19.5615C25.7023 19.5478 25.716 19.5342 25.7228 19.5273C25.7364 19.5137 25.7501 19.4932 25.7569 19.4728C25.7637 19.4591 25.7705 19.4455 25.7842 19.4318C25.7978 19.4113 25.8047 19.3977 25.8115 19.3772C25.8183 19.3636 25.8251 19.3499 25.832 19.3363C25.8388 19.3158 25.8456 19.2954 25.8524 19.2749C25.8592 19.2612 25.8592 19.2476 25.8661 19.234C25.8729 19.2135 25.8797 19.1862 25.8797 19.1657C25.8797 19.1521 25.8865 19.1384 25.8865 19.1316C25.8934 19.0975 25.8934 19.0566 25.8934 19.0224V12.9909C25.9002 12.9499 25.8934 12.9158 25.8934 12.8749ZM16.8528 8.54909L23.5189 12.9909L20.5373 14.9832L16.8528 12.5201V8.54909ZM15.1539 8.54909V12.5133L11.4695 14.9764L8.49464 12.9841L15.1539 8.54909ZM7.81234 14.5806L9.94112 16.0067L7.81234 17.4327V14.5806ZM15.1539 23.4574L8.48782 19.0156L11.4627 17.0233L15.1471 19.4864V23.4574H15.1539ZM16 18.0126L12.991 15.9998L16 13.987L19.0089 15.9998L16 18.0126ZM16.8528 23.4574V19.4932L20.5373 17.0301L23.5121 19.0224L16.8528 23.4574ZM24.1944 17.4258L22.0656 15.9998L24.1944 14.5738V17.4258Z" />
</svg>
