<svg width="32" height="32" viewBox="0 0 32 32" xmlns="http://www.w3.org/2000/svg">
<path d="M24.1156 5.01333C22.9003 3.626 22.2306 1.84432 22.2311 0H16.7378V22.0444C16.6954 23.2374 16.1918 24.3673 15.3329 25.1963C14.4741 26.0253 13.327 26.4887 12.1333 26.4889C9.60889 26.4889 7.51111 24.4267 7.51111 21.8667C7.51111 18.8089 10.4622 16.5156 13.5022 17.4578V11.84C7.36889 11.0222 2 15.7867 2 21.8667C2 27.7867 6.90667 32 12.1156 32C17.6978 32 22.2311 27.4667 22.2311 21.8667V10.6844C24.4587 12.2842 27.1331 13.1425 29.8756 13.1378V7.64444C29.8756 7.64444 26.5333 7.80444 24.1156 5.01333Z" />
</svg>
