<svg width="272" height="257" viewBox="0 0 272 257" fill="none" xmlns="http://www.w3.org/2000/svg">
<path d="M271.074 161.456C265.94 161.969 257.918 165.948 253.426 167.553C252.677 169.478 251.18 175.382 251.18 178.463C252.72 178.463 261.662 173.542 266.261 171.082C270.433 166.269 273.641 161.199 271.074 161.456Z" fill="black"/>
<path d="M233.853 77.0658C228.205 77.0658 219.307 80.0607 215.563 81.5581C211.499 102.629 203.37 147.337 203.37 157.605C208.76 165.563 221.66 168.408 227.435 168.836L240.591 160.172C239.95 167.125 237.511 184.816 232.89 199.961C227.115 218.892 192.46 238.145 183.476 224.347C176.374 213.442 215.67 191.725 234.815 182.954C234.922 182.313 235.393 179.617 236.42 173.97C220.697 176.537 170.961 196.752 159.731 217.609C148.5 238.466 168.394 264.778 205.937 254.83C243.479 244.883 249.897 195.789 252.143 182.954C254.389 170.12 269.791 79.6328 270.433 68.0813C265.042 67.3112 255.779 71.1831 251.822 73.2153C248.185 95.7835 240.848 141.048 240.591 141.562C240.335 142.075 229.788 149.263 224.548 152.792C227.435 132.577 234.815 87.0129 233.853 77.0658Z" fill="black"/>
<path d="M154.918 94.7138L139.195 127.764V146.054C142.404 139.957 149.399 126.48 151.709 121.346C151.067 123.593 145.933 167.552 145.933 171.082C147.473 172.109 159.196 173.863 164.865 174.612L179.946 118.459L177.058 168.515C181.657 169.798 191.497 172.109 194.064 171.082C194.706 169.157 203.37 111.078 203.37 103.377C200.803 101.773 188.61 98.2434 185.08 96.9599C182.256 95.9331 181.122 97.3877 180.909 98.2434L168.394 119.1C168.929 114.608 169.999 104.34 169.999 99.206C167.753 96.9599 162.619 94.7138 159.089 93.1094C156.265 91.8259 155.132 93.6442 154.918 94.7138Z" fill="black"/>
<path d="M143.366 98.2435C139.516 97.7301 132.349 100.811 129.248 102.415C127.964 105.752 122.295 157.712 119.621 183.275C121.975 184.131 128.285 185.842 134.703 185.842C140.157 168.194 143.366 103.698 143.366 98.2435Z" fill="black"/>
<path d="M25.2843 167.873C45.8203 190.206 85.3949 76.8519 102.615 17.3831C110.316 13.2118 126.937 4.16309 131.815 1.33939C136.692 -1.48431 137.697 0.804597 137.591 2.30201C124.649 82.8416 101.075 246.103 97.4811 245.846C93.8873 245.589 86.3575 220.604 84.6462 209.266L118.338 32.7851L111.921 38.5609C105.503 57.1716 78.7965 139.372 67.3189 176.537C60.5806 198.357 23.2159 218.251 4.42746 183.275C-16.351 144.595 41.0072 108.084 72.7738 94.3931L64.752 112.683C43.0394 121.774 12.7702 154.264 25.2843 167.873Z" fill="black"/>
<path d="M204.974 49.4704C203.947 50.7538 193.744 63.5889 185.401 72.5734L82.7209 108.832L88.1758 90.2215C124.863 76.6378 198.942 49.2137 201.765 48.1869C203.781 47.4381 207.244 46.6466 204.974 49.4704Z" fill="black"/>
</svg>
