<svg width="318" height="40" viewBox="0 0 318 40" fill="none" xmlns="http://www.w3.org/2000/svg">
<g clip-path="url(#clip0_720_1080)">
<path d="M32.8354 0C24.0792 0 18.6061 4.37809 16.4174 13.1343C19.7011 8.75556 23.532 7.11401 27.9101 8.209C30.4075 8.8332 32.1932 10.6455 34.1695 12.6517C37.3886 15.9186 41.1145 19.7011 49.2527 19.7011C58.0089 19.7011 63.4814 15.323 65.6701 6.56682C62.387 10.9455 58.5561 12.5871 54.178 11.4921C51.68 10.8679 49.8949 9.05555 47.9186 7.04941C44.6989 3.78246 40.9736 0 32.8354 0ZM16.4174 19.7011C7.66181 19.7011 2.18873 24.0792 0 32.8354C3.28372 28.4567 7.11401 26.8151 11.4921 27.9101C13.9901 28.5343 15.7758 30.3466 17.7515 32.3522C20.9712 35.6203 24.6972 39.4016 32.8354 39.4016C41.5909 39.4016 47.0634 35.0241 49.2527 26.2679C45.969 30.6466 42.1381 32.2882 37.7606 31.1932C35.2626 30.569 33.477 28.7566 31.5006 26.7505C28.2815 23.4836 24.5556 19.7011 16.4174 19.7011Z" fill="url(#paint0_linear_720_1080)"/>
<path d="M98.5005 16.6017H92.7703V27.6932C92.7703 30.6508 94.7112 30.6048 98.5005 30.4198V34.9022C90.8294 35.8264 87.7792 33.701 87.7792 27.6932V16.6023H83.5278V11.7963H87.7792V5.58905L92.7703 4.11084V11.7963H98.5005V16.6017ZM120.344 11.7963H125.336V34.9022H120.344V31.575C118.589 34.0246 115.862 35.5034 112.258 35.5034C105.972 35.5034 100.75 30.1887 100.75 23.3492C100.75 16.4638 105.972 11.1957 112.257 11.1957C115.862 11.1957 118.589 12.6739 120.344 15.0775V11.7963ZM113.043 30.7433C117.202 30.7433 120.344 27.6472 120.344 23.3492C120.344 19.0513 117.202 15.9551 113.043 15.9551C108.884 15.9551 105.741 19.0513 105.741 23.3492C105.741 27.6472 108.884 30.7433 113.043 30.7433ZM133.654 8.32993C131.897 8.32993 130.465 6.85173 130.465 5.14186C130.467 4.29667 130.803 3.48657 131.401 2.88892C131.999 2.29128 132.809 1.95481 133.654 1.95316C134.499 1.95481 135.309 2.29128 135.907 2.88892C136.504 3.48657 136.841 4.29667 136.843 5.14186C136.843 6.85173 135.41 8.32993 133.654 8.32993ZM131.158 34.9022V11.7963H136.149V34.9022H131.158ZM141.926 34.9022V1.16748H146.917V34.9022H141.926ZM179.312 11.7963H184.58L177.324 34.9022H172.426L167.62 19.3289L162.768 34.9022H157.869L150.613 11.7963H155.882L160.365 27.7397L165.217 11.7963H169.977L174.783 27.7397L179.312 11.7963ZM190.772 8.33056C189.016 8.33056 187.583 6.85173 187.583 5.14186C187.585 4.29667 187.922 3.48657 188.519 2.88892C189.117 2.29128 189.927 1.95481 190.772 1.95316C191.617 1.95481 192.427 2.29128 193.025 2.88892C193.623 3.48657 193.959 4.29667 193.961 5.14186C193.961 6.85173 192.528 8.32993 190.772 8.32993M188.277 34.9016V11.7963H193.268V34.9022L188.277 34.9016ZM211.198 11.1944C216.374 11.1944 220.071 14.7067 220.071 20.7145V34.9016H215.08V21.2232C215.08 17.7116 213.046 15.8632 209.904 15.8632C206.623 15.8632 204.035 17.8035 204.035 22.5176V34.9022H199.044V11.7963H204.035V14.7539C205.56 12.3503 208.055 11.1944 211.198 11.1944ZM243.732 2.55376H248.723V34.9022H243.732V31.575C241.976 34.0246 239.249 35.5034 235.645 35.5034C229.359 35.5034 224.137 30.1887 224.137 23.3492C224.137 16.4638 229.359 11.1957 235.644 11.1957C239.249 11.1957 241.976 12.6739 243.732 15.0775V2.55376ZM236.43 30.7433C240.589 30.7433 243.732 27.6472 243.732 23.3492C243.732 19.0513 240.589 15.9551 236.43 15.9551C232.271 15.9551 229.128 19.0513 229.128 23.3492C229.128 27.6472 232.271 30.7433 236.43 30.7433ZM265.451 35.5034C258.473 35.5034 253.251 30.1887 253.251 23.3492C253.251 16.4638 258.473 11.1957 265.451 11.1957C269.98 11.1957 273.908 13.5521 275.757 17.1569L271.459 19.6525C270.442 17.4805 268.178 16.0936 265.405 16.0936C261.338 16.0936 258.242 19.1904 258.242 23.3492C258.242 27.5081 261.338 30.6048 265.405 30.6048C268.178 30.6048 270.442 29.172 271.552 27.046L275.85 29.4956C273.908 33.1464 269.98 35.5034 265.451 35.5034ZM284.075 18.1737C284.075 22.3785 296.506 19.8369 296.506 28.3863C296.506 33.0072 292.485 35.5034 287.494 35.5034C282.873 35.5034 279.546 33.4234 278.067 30.0962L282.365 27.6006C283.105 29.6807 284.953 30.9278 287.494 30.9278C289.713 30.9278 291.423 30.1887 291.423 28.3403C291.423 24.2275 278.992 26.5379 278.992 18.2662C278.992 13.9216 282.735 11.1957 287.448 11.1957C291.238 11.1957 294.38 12.9515 295.998 16.0017L291.793 18.3581C290.961 16.5563 289.343 15.7247 287.448 15.7247C285.646 15.7247 284.075 16.5097 284.075 18.1737ZM305.379 18.1737C305.379 22.3785 317.81 19.8369 317.81 28.3863C317.81 33.0072 313.79 35.5034 308.799 35.5034C304.178 35.5034 300.85 33.4234 299.371 30.0962L303.669 27.6006C304.408 29.6807 306.257 30.9278 308.799 30.9278C311.016 30.9278 312.726 30.1887 312.726 28.3403C312.726 24.2275 300.296 26.5379 300.296 18.2662C300.296 13.9216 304.038 11.1957 308.753 11.1957C312.541 11.1957 315.684 12.9515 317.302 16.0017L313.097 18.3581C312.264 16.5563 310.647 15.7247 308.753 15.7247C306.95 15.7247 305.379 16.5097 305.379 18.1737Z" fill="white"/>
</g>
<defs>
<linearGradient id="paint0_linear_720_1080" x1="-182.432" y1="1260.85" x2="5489.22" y2="4531.07" gradientUnits="userSpaceOnUse">
<stop stop-color="#2298BD"/>
<stop offset="1" stop-color="#0ED7B5"/>
</linearGradient>
<clipPath id="clip0_720_1080">
<rect width="318" height="39.75" fill="white"/>
</clipPath>
</defs>
</svg>
