<svg width="32" height="32" viewBox="0 0 32 32" fill="none" xmlns="http://www.w3.org/2000/svg">
<g clip-path="url(#clip0_720_1094)">
<path fill-rule="evenodd" clip-rule="evenodd" d="M2.19891 10.6923C-0.732646 13.6239 -0.732646 18.377 2.19891 21.3087L10.692 29.8018C13.6237 32.7333 18.3768 32.7333 21.3084 29.8018L29.8015 21.3087C32.7331 18.377 32.7331 13.6239 29.8015 10.6923L21.3084 2.19916C18.3768 -0.732402 13.6237 -0.732402 10.692 2.19916L2.19891 10.6923ZM19.7159 19.7162C21.7681 17.6641 21.7681 14.3368 19.7159 12.2848C17.6638 10.2326 14.3366 10.2326 12.2845 12.2848C10.2323 14.3368 10.2323 17.6641 12.2845 19.7162C14.3366 21.7683 17.6638 21.7683 19.7159 19.7162Z" fill="white"/>
</g>
<defs>
<clipPath id="clip0_720_1094">
<rect width="32" height="32" fill="white"/>
</clipPath>
</defs>
</svg>
