<svg width="215" height="49" viewBox="0 0 215 49" fill="none" xmlns="http://www.w3.org/2000/svg">
<g clip-path="url(#clip0_720_1083)">
<path d="M106.844 12.1208C98.4804 12.1208 92.4505 17.5751 92.4505 25.7563C92.4505 33.938 99.238 39.3922 107.602 39.3922C112.654 39.3922 117.108 37.3923 119.866 34.0212L114.071 30.6731C112.54 32.3471 110.215 33.3243 107.601 33.3243C103.973 33.3243 100.889 31.4306 99.7454 28.4004H120.972C121.139 27.5517 121.237 26.6728 121.237 25.7488C121.237 17.5751 115.207 12.1208 106.844 12.1208ZM99.678 23.1051C100.625 20.0824 103.216 18.1808 106.836 18.1808C110.465 18.1808 113.056 20.0824 113.995 23.1051H99.678ZM188.417 12.1204C180.053 12.1204 174.023 17.5751 174.023 25.7563C174.023 33.938 180.81 39.3922 189.174 39.3922C194.227 39.3922 198.681 37.3923 201.439 34.0212L195.643 30.6731C194.113 32.3471 191.788 33.3243 189.174 33.3243C185.545 33.3243 182.462 31.4306 181.318 28.4004H202.544C202.71 27.5517 202.809 26.6728 202.809 25.7488C202.809 17.5751 196.779 12.1204 188.416 12.1204M181.257 23.1051C182.204 20.0824 184.794 18.1808 188.416 18.1808C192.044 18.1808 194.635 20.0824 195.574 23.1051H181.257ZM151.69 25.7563C151.69 30.3016 154.66 33.3318 159.265 33.3318C162.386 33.3318 164.727 31.9155 165.932 29.6047L171.75 32.9608C169.341 36.9757 164.826 39.3922 159.265 39.3922C150.895 39.3922 144.872 33.9375 144.872 25.7563C144.872 17.5751 150.902 12.1208 159.265 12.1208C164.826 12.1208 169.333 14.5374 171.75 18.5523L165.932 21.9083C164.727 19.5976 162.386 18.1812 159.265 18.1812C154.667 18.1812 151.69 21.2106 151.69 25.7563ZM214.172 3.78776V38.6347H207.354V3.78776H214.172ZM27.9913 0L55.9822 48.4829H0L27.9913 0ZM97.973 3.78776L76.9816 40.1498L55.9898 3.78776H63.861L76.9816 26.5143L90.1022 3.78776H97.973ZM142.6 12.8784V20.2188C141.842 19.9992 141.04 19.8478 140.176 19.8478C135.774 19.8478 132.6 22.878 132.6 27.4233V38.6347H125.782V12.8784H132.6V19.8473C132.6 15.9989 137.077 12.8784 142.6 12.8784Z" fill="white"/>
</g>
<defs>
<clipPath id="clip0_720_1083">
<rect width="214.172" height="48.5234" fill="white"/>
</clipPath>
</defs>
</svg>
