<svg width="216" height="71" viewBox="0 0 216 71" fill="none" xmlns="http://www.w3.org/2000/svg">
<g clip-path="url(#clip0_720_1072)">
<path d="M35.3009 1.77416C35.8789 2.49172 36.1739 3.46051 36.7637 5.3981L49.6479 47.7225C44.8083 45.2111 39.6138 43.4525 34.2438 42.5076L25.8553 14.1588C25.7885 13.9326 25.6501 13.7342 25.4611 13.5932C25.272 13.4522 25.0424 13.3762 24.8065 13.3766C24.5707 13.3769 24.3413 13.4537 24.1527 13.5953C23.964 13.7369 23.8264 13.9358 23.7602 14.1622L15.473 42.4933C10.0789 43.4339 4.86069 45.1953 0 47.7162L12.9472 5.38802C13.5392 3.45421 13.8349 2.4871 14.4134 1.7708C14.9237 1.13808 15.5876 0.646613 16.3418 0.343237C17.1967 0 18.2079 0 20.2308 0H29.4784C31.5034 0 32.5159 0 33.3713 0.344497C34.1262 0.648233 34.7903 1.14046 35.3009 1.77416Z" fill="white"/>
<path d="M36.8423 49.7369C34.7186 51.5531 30.4791 52.7916 25.5957 52.7916C19.6023 52.7916 14.5789 50.9259 13.2459 48.4165C12.7691 49.8546 12.6623 51.5002 12.6623 52.5521C12.6623 52.5521 12.3485 57.7154 15.9393 61.3062C15.9394 60.4107 16.2952 59.552 16.9284 58.9189C17.5616 58.2858 18.4203 57.9301 19.3158 57.9301C22.5116 57.9301 22.5082 60.7184 22.5053 62.9807V63.1824C22.5053 66.616 24.6038 69.5598 27.5883 70.8004C27.1288 69.8549 26.8907 68.8171 26.8922 67.7659C26.8922 64.4911 28.8151 63.2715 31.0497 61.8548C32.8272 60.7268 34.8026 59.474 36.1642 56.9609C36.8972 55.6071 37.2799 54.0916 37.2775 52.5521C37.2775 51.5703 37.125 50.6246 36.8423 49.7369Z" fill="#FF5D01"/>
<path d="M79.228 47.0609C84.6172 47.0609 88.6596 45.1434 90.3174 41.8791C90.3174 43.4336 90.4203 45.0401 90.68 46.2836H99.5403L99.515 46.1719C99.1222 44.3864 98.9235 41.9669 98.9193 38.8177V30.738C98.9193 23.1725 94.4623 19.5973 84.5655 19.5973C75.9115 19.5973 70.108 23.1725 69.4346 29.0281H78.6583C78.9692 26.4889 81.0933 25.0899 84.5655 25.0899C87.9853 25.0899 89.9023 26.4889 89.9023 29.3911V30.1683L80.5236 30.9972C76.009 31.4593 73.4244 32.2252 71.6137 33.4473L71.5591 33.4843C69.6417 34.78 68.6573 36.749 68.6573 39.1845C68.6573 44.0553 72.6989 47.0609 79.228 47.0609ZM82.6481 41.6716C79.6422 41.6716 77.8294 40.4801 77.8294 38.5627C77.8294 36.5936 79.3313 35.5572 83.1145 35.0908L90.0578 34.3653V35.9197C90.0578 39.3916 87.0527 41.6716 82.6481 41.6716ZM118.23 47.0609C127.247 47.0609 131.858 43.6928 131.858 38.2518C131.858 33.7439 129.267 31.2564 122.998 30.4271L115.172 29.5461C112.945 29.2352 112.011 28.6651 112.011 27.4216C112.011 25.9188 113.514 25.2454 116.934 25.2454C121.649 25.2454 124.914 26.3335 127.558 28.458L131.755 24.261C128.852 21.2555 123.826 19.5973 117.608 19.5973C108.851 19.5973 103.98 22.7062 103.98 27.94C103.98 32.5 106.985 35.0392 113.203 35.8676L120.251 36.697C123.049 37.0599 123.878 37.5779 123.878 38.9253C123.878 40.4797 122.323 41.309 118.696 41.309C113.307 41.309 109.68 39.8579 107.244 37.1637L102.477 41.1019C105.638 45.0401 111.027 47.0609 118.23 47.0609ZM139.174 26.2297V37.1637C139.174 43.589 142.801 46.8537 150.574 46.8537C152.958 46.8537 154.823 46.5945 156.585 46.0765V39.3399L156.436 39.3727C155.531 39.5685 154.433 39.7546 153.01 39.7546C149.745 39.7546 148.139 38.3035 148.139 35.2463V26.2297H156.637V20.3745H148.139V10.8916L139.174 14.208V20.3745H133.37V26.2297H139.174ZM169.507 20.3745H161.319V46.2832H170.284V36.594C170.284 33.796 170.906 31.2568 172.616 29.6503C173.964 28.4068 175.881 27.7333 178.575 27.7333C179.56 27.7333 180.337 27.8367 181.218 27.9404V19.8044C180.648 19.7006 180.233 19.7006 179.508 19.7006C174.378 19.7006 170.906 22.6541 169.507 27.4737V20.3745ZM198.933 47.0604C208.416 47.0604 215.101 42.0346 215.101 33.2772C215.101 24.5719 208.416 19.5973 198.933 19.5973C189.399 19.5973 182.714 24.5715 182.714 33.2772C182.714 42.0346 189.398 47.0609 198.933 47.0609M198.933 41.1023C194.58 41.1023 191.834 38.3043 191.834 33.2776C191.834 28.2513 194.58 25.5567 198.933 25.5567C203.234 25.5567 205.981 28.2513 205.981 33.2776C205.981 38.3039 203.234 41.1023 198.933 41.1023Z" fill="white"/>
</g>
<defs>
<clipPath id="clip0_720_1072">
<rect width="215.101" height="71" fill="white"/>
</clipPath>
</defs>
</svg>
