<svg width="18" height="18" viewBox="0 0 18 18" fill="none" xmlns="http://www.w3.org/2000/svg">
<path fill-rule="evenodd" clip-rule="evenodd" d="M9 0C4.02943 0 0 4.02943 0 9C0 13.9706 4.02943 18 9 18C13.9706 18 18 13.9706 18 9C18 4.02943 13.9706 0 9 0ZM9.00078 16.2C5.02433 16.2 1.80078 12.9764 1.80078 8.99999C1.80078 5.02354 5.02433 1.79999 9.00078 1.79999C12.9772 1.79999 16.2008 5.02354 16.2008 8.99999C16.2008 12.9764 12.9772 16.2 9.00078 16.2ZM4.5 9C4.5 6.51472 6.51472 4.5 9 4.5C11.4853 4.5 13.5 6.51472 13.5 9C13.5 11.4853 11.4853 13.5 9 13.5C6.51472 13.5 4.5 11.4853 4.5 9Z" fill="#FFB700"/>
</svg>
