<svg width="513" height="472" viewBox="0 0 513 472" fill="none" xmlns="http://www.w3.org/2000/svg">
<circle cx="149.5" cy="149.5" r="149" fill="#FF00D6" fill-opacity="0.25" stroke="white"/>
<path d="M117.692 143.256H121.922C122.714 143.256 123.506 143.388 124.298 143.652C125.102 143.916 125.822 144.318 126.458 144.858C127.106 145.386 127.628 146.052 128.024 146.856C128.42 147.648 128.618 148.572 128.618 149.628C128.618 150.696 128.42 151.626 128.024 152.418C127.628 153.21 127.106 153.876 126.458 154.416C125.822 154.944 125.102 155.34 124.298 155.604C123.506 155.868 122.714 156 121.922 156H117.692V143.256ZM118.988 154.848H121.562C122.522 154.848 123.356 154.698 124.064 154.398C124.784 154.098 125.378 153.708 125.846 153.228C126.314 152.736 126.662 152.178 126.89 151.554C127.13 150.93 127.25 150.288 127.25 149.628C127.25 148.968 127.13 148.326 126.89 147.702C126.662 147.078 126.314 146.526 125.846 146.046C125.378 145.554 124.784 145.158 124.064 144.858C123.356 144.558 122.522 144.408 121.562 144.408H118.988V154.848ZM132.611 154.848H139.433V156H131.315V143.256H139.217V144.408H132.611V148.8H138.785V149.934H132.611V154.848ZM148.141 145.308C147.865 144.924 147.511 144.618 147.079 144.39C146.647 144.15 146.125 144.03 145.513 144.03C145.201 144.03 144.883 144.078 144.559 144.174C144.235 144.27 143.941 144.42 143.677 144.624C143.413 144.816 143.197 145.062 143.029 145.362C142.873 145.662 142.795 146.016 142.795 146.424C142.795 146.832 142.873 147.168 143.029 147.432C143.185 147.696 143.389 147.924 143.641 148.116C143.905 148.296 144.199 148.446 144.523 148.566C144.859 148.686 145.207 148.806 145.567 148.926C146.011 149.07 146.455 149.226 146.899 149.394C147.355 149.562 147.763 149.784 148.123 150.06C148.483 150.324 148.777 150.666 149.005 151.086C149.233 151.494 149.347 152.016 149.347 152.652C149.347 153.288 149.221 153.84 148.969 154.308C148.729 154.764 148.411 155.142 148.015 155.442C147.631 155.742 147.187 155.964 146.683 156.108C146.191 156.252 145.693 156.324 145.189 156.324C144.805 156.324 144.421 156.282 144.037 156.198C143.653 156.126 143.287 156.012 142.939 155.856C142.591 155.7 142.267 155.502 141.967 155.262C141.667 155.022 141.403 154.746 141.175 154.434L142.291 153.606C142.567 154.062 142.951 154.446 143.443 154.758C143.947 155.058 144.535 155.208 145.207 155.208C145.531 155.208 145.861 155.16 146.197 155.064C146.533 154.956 146.833 154.8 147.097 154.596C147.373 154.38 147.595 154.122 147.763 153.822C147.943 153.51 148.033 153.15 148.033 152.742C148.033 152.298 147.943 151.932 147.763 151.644C147.595 151.344 147.367 151.098 147.079 150.906C146.791 150.702 146.461 150.534 146.089 150.402C145.717 150.27 145.327 150.138 144.919 150.006C144.499 149.874 144.085 149.724 143.677 149.556C143.269 149.388 142.903 149.172 142.579 148.908C142.255 148.632 141.991 148.296 141.787 147.9C141.595 147.504 141.499 147.018 141.499 146.442C141.499 145.83 141.619 145.302 141.859 144.858C142.111 144.414 142.435 144.048 142.831 143.76C143.227 143.472 143.665 143.262 144.145 143.13C144.625 142.998 145.099 142.932 145.567 142.932C146.431 142.932 147.169 143.088 147.781 143.4C148.393 143.7 148.855 144.06 149.167 144.48L148.141 145.308ZM153.424 156H152.128V143.256H153.424V156ZM166.469 145.542C166.025 145.074 165.497 144.714 164.885 144.462C164.273 144.198 163.571 144.066 162.779 144.066C161.963 144.066 161.225 144.216 160.565 144.516C159.917 144.816 159.365 145.224 158.909 145.74C158.453 146.244 158.099 146.832 157.847 147.504C157.607 148.176 157.487 148.884 157.487 149.628C157.487 150.372 157.607 151.08 157.847 151.752C158.099 152.424 158.453 153.012 158.909 153.516C159.365 154.02 159.917 154.422 160.565 154.722C161.225 155.022 161.963 155.172 162.779 155.172C163.499 155.172 164.159 155.094 164.759 154.938C165.359 154.782 165.845 154.584 166.217 154.344V150.474H163.247V149.34H167.513V155.082C166.817 155.502 166.067 155.814 165.263 156.018C164.459 156.222 163.625 156.324 162.761 156.324C161.801 156.324 160.913 156.156 160.097 155.82C159.281 155.484 158.579 155.022 157.991 154.434C157.403 153.834 156.941 153.126 156.605 152.31C156.281 151.494 156.119 150.6 156.119 149.628C156.119 148.656 156.287 147.762 156.623 146.946C156.959 146.13 157.421 145.428 158.009 144.84C158.609 144.24 159.311 143.772 160.115 143.436C160.931 143.1 161.813 142.932 162.761 142.932C163.781 142.932 164.669 143.082 165.425 143.382C166.181 143.682 166.829 144.102 167.369 144.642L166.469 145.542ZM179.867 154.11H179.903V143.256H181.199V156H179.579L172.163 145.038H172.127V156H170.831V143.256H172.451L179.867 154.11Z" fill="white"/>
<circle cx="363.5" cy="149.5" r="149" fill="#00D7F1" fill-opacity="0.26" stroke="white"/>
<path d="M346.947 143.256H351.177C351.969 143.256 352.761 143.388 353.553 143.652C354.357 143.916 355.077 144.318 355.713 144.858C356.361 145.386 356.883 146.052 357.279 146.856C357.675 147.648 357.873 148.572 357.873 149.628C357.873 150.696 357.675 151.626 357.279 152.418C356.883 153.21 356.361 153.876 355.713 154.416C355.077 154.944 354.357 155.34 353.553 155.604C352.761 155.868 351.969 156 351.177 156H346.947V143.256ZM348.243 154.848H350.817C351.777 154.848 352.611 154.698 353.319 154.398C354.039 154.098 354.633 153.708 355.101 153.228C355.569 152.736 355.917 152.178 356.145 151.554C356.385 150.93 356.505 150.288 356.505 149.628C356.505 148.968 356.385 148.326 356.145 147.702C355.917 147.078 355.569 146.526 355.101 146.046C354.633 145.554 354.039 145.158 353.319 144.858C352.611 144.558 351.777 144.408 350.817 144.408H348.243V154.848ZM361.866 154.848H368.688V156H360.57V143.256H368.472V144.408H361.866V148.8H368.04V149.934H361.866V154.848ZM375.128 154.326H375.164L379.304 143.256H380.69L375.812 156H374.444L369.584 143.256H370.988L375.128 154.326Z" fill="white"/>
<circle cx="256.5" cy="322.5" r="149" fill="#FAFF00" fill-opacity="0.17" stroke="white"/>
<path d="M225.42 326.948C225.204 327.272 224.94 327.578 224.628 327.866C224.328 328.154 223.974 328.406 223.566 328.622C223.17 328.838 222.726 329.006 222.234 329.126C221.754 329.258 221.226 329.324 220.65 329.324C219.69 329.324 218.802 329.156 217.986 328.82C217.17 328.484 216.468 328.022 215.88 327.434C215.292 326.834 214.83 326.126 214.494 325.31C214.17 324.494 214.008 323.6 214.008 322.628C214.008 321.656 214.176 320.762 214.512 319.946C214.848 319.13 215.31 318.428 215.898 317.84C216.498 317.24 217.2 316.772 218.004 316.436C218.82 316.1 219.702 315.932 220.65 315.932C221.118 315.932 221.574 315.98 222.018 316.076C222.474 316.172 222.9 316.31 223.296 316.49C223.692 316.658 224.052 316.868 224.376 317.12C224.7 317.36 224.97 317.636 225.186 317.948L224.106 318.74C223.974 318.536 223.794 318.332 223.566 318.128C223.35 317.924 223.092 317.744 222.792 317.588C222.492 317.432 222.162 317.306 221.802 317.21C221.454 317.114 221.076 317.066 220.668 317.066C219.84 317.066 219.096 317.216 218.436 317.516C217.788 317.816 217.236 318.224 216.78 318.74C216.324 319.244 215.976 319.832 215.736 320.504C215.496 321.176 215.376 321.884 215.376 322.628C215.376 323.372 215.496 324.08 215.736 324.752C215.988 325.424 216.342 326.018 216.798 326.534C217.254 327.038 217.806 327.44 218.454 327.74C219.114 328.04 219.852 328.19 220.668 328.19C221.4 328.19 222.096 328.04 222.756 327.74C223.416 327.44 223.968 326.96 224.412 326.3L225.42 326.948ZM240.036 322.628C240.036 323.6 239.868 324.494 239.532 325.31C239.196 326.126 238.728 326.834 238.128 327.434C237.54 328.022 236.838 328.484 236.022 328.82C235.218 329.156 234.342 329.324 233.394 329.324C232.446 329.324 231.564 329.156 230.748 328.82C229.944 328.484 229.242 328.022 228.642 327.434C228.054 326.834 227.592 326.126 227.256 325.31C226.92 324.494 226.752 323.6 226.752 322.628C226.752 321.656 226.92 320.762 227.256 319.946C227.592 319.13 228.054 318.428 228.642 317.84C229.242 317.24 229.944 316.772 230.748 316.436C231.564 316.1 232.446 315.932 233.394 315.932C234.342 315.932 235.218 316.1 236.022 316.436C236.838 316.772 237.54 317.24 238.128 317.84C238.728 318.428 239.196 319.13 239.532 319.946C239.868 320.762 240.036 321.656 240.036 322.628ZM238.668 322.628C238.668 321.884 238.548 321.176 238.308 320.504C238.068 319.832 237.72 319.244 237.264 318.74C236.808 318.224 236.25 317.816 235.59 317.516C234.942 317.216 234.21 317.066 233.394 317.066C232.578 317.066 231.84 317.216 231.18 317.516C230.532 317.816 229.98 318.224 229.524 318.74C229.068 319.244 228.72 319.832 228.48 320.504C228.24 321.176 228.12 321.884 228.12 322.628C228.12 323.372 228.24 324.08 228.48 324.752C228.72 325.424 229.068 326.012 229.524 326.516C229.98 327.02 230.532 327.422 231.18 327.722C231.84 328.022 232.578 328.172 233.394 328.172C234.21 328.172 234.942 328.022 235.59 327.722C236.25 327.422 236.808 327.02 237.264 326.516C237.72 326.012 238.068 325.424 238.308 324.752C238.548 324.08 238.668 323.372 238.668 322.628ZM251.765 327.11H251.801V316.256H253.097V329H251.477L244.061 318.038H244.025V329H242.729V316.256H244.349L251.765 327.11ZM260.561 329H259.265V317.408H254.999V316.256H264.827V317.408H260.561V329ZM268.037 327.848H274.859V329H266.741V316.256H274.643V317.408H268.037V321.8H274.211V322.934H268.037V327.848ZM286.429 327.11H286.465V316.256H287.761V329H286.141L278.725 318.038H278.689V329H277.393V316.256H279.013L286.429 327.11ZM295.225 329H293.929V317.408H289.663V316.256H299.491V317.408H295.225V329Z" fill="white"/>
<path d="M255.87 209L255.942 199.982H255.888L252.576 209H250.416L247.194 199.982H247.14L247.212 209H244.314V196.256H248.688L251.586 204.428H251.658L254.43 196.256H258.876V209H255.87ZM261.505 209V196.256H270.073V198.866H264.475V201.26H269.767V203.726H264.475V206.372H270.397V209H261.505Z" fill="#FFB700"/>
</svg>
