<?xml version="1.0" encoding="UTF-8"?>
<!-- This file is generated by npm run build:icons -->
<svg xmlns="http://www.w3.org/2000/svg" xmlns:xlink="http://www.w3.org/1999/xlink" width="0" height="0">
<defs>
<symbol viewBox="0 0 32 32" id="arrow--right">
<path fill-rule="evenodd" clip-rule="evenodd" d="M16 5.33366C10.109 5.33366 5.33335 10.1093 5.33335 16.0003C5.33335 21.8914 10.109 26.667 16 26.667C21.8911 26.667 26.6667 21.8914 26.6667 16.0003C26.6667 10.1093 21.8911 5.33366 16 5.33366ZM2.66669 16.0003C2.66669 8.63653 8.63622 2.66699 16 2.66699C23.3638 2.66699 29.3334 8.63653 29.3334 16.0003C29.3334 23.3641 23.3638 29.3337 16 29.3337C8.63622 29.3337 2.66669 23.3641 2.66669 16.0003Z" ></path>
<path fill-rule="evenodd" clip-rule="evenodd" d="M13.7238 11.0575C14.2445 10.5368 15.0888 10.5368 15.6095 11.0575L19.6095 15.0575C20.1302 15.5782 20.1302 16.4224 19.6095 16.9431L15.6095 20.9431C15.0888 21.4638 14.2445 21.4638 13.7238 20.9431C13.2031 20.4224 13.2031 19.5782 13.7238 19.0575L16.781 16.0003L13.7238 12.9431C13.2031 12.4224 13.2031 11.5782 13.7238 11.0575Z" ></path>
</symbol>
<symbol viewBox="0 0 32 32" id="arrow-circle">
<path fill-rule="evenodd" clip-rule="evenodd" d="M16.0003 5.33335C10.1093 5.33335 5.33366 10.109 5.33366 16C5.33366 21.8911 10.1093 26.6667 16.0003 26.6667C21.8914 26.6667 26.667 21.8911 26.667 16C26.667 10.109 21.8914 5.33335 16.0003 5.33335ZM2.66699 16C2.66699 8.63622 8.63653 2.66669 16.0003 2.66669C23.3641 2.66669 29.3337 8.63622 29.3337 16C29.3337 23.3638 23.3641 29.3334 16.0003 29.3334C8.63653 29.3334 2.66699 23.3638 2.66699 16Z"></path>
<path fill-rule="evenodd" clip-rule="evenodd" d="M13.7235 11.0572C14.2442 10.5365 15.0885 10.5365 15.6092 11.0572L19.6092 15.0572C20.1298 15.5779 20.1298 16.4221 19.6092 16.9428L15.6092 20.9428C15.0885 21.4635 14.2442 21.4635 13.7235 20.9428C13.2028 20.4221 13.2028 19.5779 13.7235 19.0572L16.7807 16L13.7235 12.9428C13.2028 12.4221 13.2028 11.5779 13.7235 11.0572Z"></path>
</symbol>
<symbol viewBox="0 0 33 32" id="attachment">
<path fill-rule="evenodd" clip-rule="evenodd" d="M15.5572 4.39052C18.287 1.66068 22.713 1.66068 25.4428 4.39052C28.0946 7.04236 28.1704 11.2948 25.6701 14.0381L25.4428 14.2761L16.7761 22.9428C15.1509 24.5681 12.5158 24.5681 10.8905 22.9428C9.32776 21.38 9.26765 18.8837 10.7102 17.2491L10.8905 17.0572L19.5572 8.39052C20.0779 7.86982 20.9221 7.86982 21.4428 8.39052C21.9234 8.87116 21.9604 9.62747 21.5537 10.1505L21.4428 10.2761L12.7761 18.9428C12.1923 19.5267 12.1923 20.4733 12.7761 21.0572C13.3183 21.5994 14.1733 21.6381 14.7601 21.1734L14.8905 21.0572L23.5572 12.3905C25.2456 10.7021 25.2456 7.96458 23.5572 6.27614C21.9313 4.65023 19.3326 4.59001 17.6346 6.09548L17.4428 6.27614L8.77613 14.9428C5.98312 17.7358 5.98312 22.2642 8.77613 25.0572C11.4893 27.7704 15.8402 27.8479 18.6469 25.2897L18.8905 25.0572L27.5572 16.3905C28.0779 15.8698 28.9221 15.8698 29.4428 16.3905C29.9234 16.8712 29.9604 17.6275 29.5537 18.1505L29.4428 18.2761L20.7761 26.9428C16.9417 30.7772 10.7249 30.7772 6.89051 26.9428C3.14132 23.1936 3.058 17.1667 6.64057 13.3163L6.89051 13.0572L15.5572 4.39052Z" fill="#131313"></path>
</symbol>
<symbol viewBox="0 0 32 32" id="codepen">
<path d="M16 0C7.16418 0 0 7.16418 0 16C0 24.8358 7.16418 32 16 32C24.8358 32 32 24.8358 32 16C32 7.16418 24.8426 0 16 0ZM16 29.38C8.62431 29.38 2.62687 23.3825 2.62687 16.0068C2.62687 8.63113 8.62431 2.63369 16 2.63369C23.3757 2.63369 29.3731 8.63113 29.3731 16.0068C29.3731 23.3825 23.3757 29.38 16 29.38Z" ></path>
<path d="M25.8934 12.8749C25.8934 12.8612 25.8865 12.8476 25.8865 12.8408C25.8797 12.8135 25.8797 12.793 25.8729 12.7725C25.8661 12.7589 25.8661 12.7453 25.8592 12.7316C25.8524 12.7111 25.8456 12.6907 25.8388 12.6702C25.832 12.6566 25.8251 12.6429 25.8183 12.6293C25.8115 12.6088 25.7978 12.5883 25.791 12.5747C25.7842 12.561 25.7774 12.5474 25.7637 12.5337C25.7501 12.5133 25.7433 12.4996 25.7296 12.4792C25.7228 12.4655 25.7091 12.4519 25.7023 12.445C25.6887 12.4314 25.675 12.4109 25.6614 12.3973C25.6477 12.3836 25.6409 12.3768 25.6273 12.3632C25.6136 12.3495 25.5931 12.3359 25.5795 12.3222C25.5659 12.3154 25.5522 12.3018 25.5386 12.2949C25.5317 12.2949 25.5317 12.2881 25.5249 12.2813L16.4776 6.24973C16.191 6.05868 15.8226 6.05868 15.536 6.24973L6.48867 12.2813C6.48185 12.2813 6.48185 12.2881 6.47502 12.2949C6.46138 12.3018 6.44773 12.3154 6.43409 12.3222C6.42044 12.3359 6.39997 12.3495 6.38632 12.3632C6.37268 12.3768 6.36586 12.3836 6.35221 12.3973C6.33856 12.4109 6.32492 12.4246 6.31127 12.445C6.30445 12.4587 6.2908 12.4723 6.28398 12.4792C6.27033 12.4928 6.25669 12.5133 6.24986 12.5337C6.24304 12.5474 6.23622 12.561 6.22257 12.5747C6.20893 12.5951 6.2021 12.6088 6.19528 12.6293C6.18846 12.6429 6.18163 12.6566 6.17481 12.6702C6.16799 12.6907 6.16116 12.7111 6.15434 12.7316C6.14752 12.7453 6.14752 12.7589 6.1407 12.7725C6.13387 12.793 6.12705 12.8203 6.12705 12.8408C6.12705 12.8544 6.12023 12.8681 6.12023 12.8749C6.1134 12.909 6.1134 12.9499 6.1134 12.9841V19.0156C6.1134 19.0497 6.1134 19.0907 6.12023 19.1248C6.12023 19.1384 6.12705 19.1521 6.12705 19.1589C6.13387 19.1862 6.13387 19.2067 6.1407 19.2271C6.14752 19.2408 6.14752 19.2544 6.15434 19.2681C6.16116 19.2885 6.16799 19.309 6.17481 19.3295C6.18163 19.3431 6.18846 19.3568 6.19528 19.3704C6.2021 19.3909 6.21575 19.4114 6.22257 19.425C6.22939 19.4386 6.23622 19.4523 6.24986 19.4659C6.26351 19.4864 6.27033 19.5 6.28398 19.5205C6.2908 19.5342 6.30445 19.5478 6.31127 19.5546C6.32492 19.5683 6.33856 19.5887 6.35221 19.6024C6.36586 19.616 6.37268 19.6229 6.38632 19.6365C6.39997 19.6502 6.42044 19.6638 6.43409 19.6774C6.44773 19.6843 6.46138 19.6979 6.47502 19.7047C6.48185 19.7047 6.48185 19.7116 6.48867 19.7184L15.536 25.7499C15.6793 25.8455 15.843 25.8932 16.0068 25.8932C16.1705 25.8932 16.3343 25.8455 16.4776 25.7499L25.5181 19.7252C25.5249 19.7252 25.5249 19.7184 25.5317 19.7116C25.5454 19.7047 25.559 19.6911 25.5727 19.6843C25.5863 19.6706 25.6068 19.657 25.6204 19.6433C25.6341 19.6297 25.6409 19.6229 25.6546 19.6092C25.6682 19.5956 25.6818 19.5819 25.6955 19.5615C25.7023 19.5478 25.716 19.5342 25.7228 19.5273C25.7364 19.5137 25.7501 19.4932 25.7569 19.4728C25.7637 19.4591 25.7705 19.4455 25.7842 19.4318C25.7978 19.4113 25.8047 19.3977 25.8115 19.3772C25.8183 19.3636 25.8251 19.3499 25.832 19.3363C25.8388 19.3158 25.8456 19.2954 25.8524 19.2749C25.8592 19.2612 25.8592 19.2476 25.8661 19.234C25.8729 19.2135 25.8797 19.1862 25.8797 19.1657C25.8797 19.1521 25.8865 19.1384 25.8865 19.1316C25.8934 19.0975 25.8934 19.0566 25.8934 19.0224V12.9909C25.9002 12.9499 25.8934 12.9158 25.8934 12.8749ZM16.8528 8.54909L23.5189 12.9909L20.5373 14.9832L16.8528 12.5201V8.54909ZM15.1539 8.54909V12.5133L11.4695 14.9764L8.49464 12.9841L15.1539 8.54909ZM7.81234 14.5806L9.94112 16.0067L7.81234 17.4327V14.5806ZM15.1539 23.4574L8.48782 19.0156L11.4627 17.0233L15.1471 19.4864V23.4574H15.1539ZM16 18.0126L12.991 15.9998L16 13.987L19.0089 15.9998L16 18.0126ZM16.8528 23.4574V19.4932L20.5373 17.0301L23.5121 19.0224L16.8528 23.4574ZM24.1944 17.4258L22.0656 15.9998L24.1944 14.5738V17.4258Z" ></path>
</symbol>
<symbol viewBox="0 0 32 32" id="github">
<path d="M16 0C7.2 0 0 7.2 0 16C0 24.8 7.2 32 16 32C24.8 32 32 24.8 32 16C32 7.2 24.8 0 16 0ZM25.5 25.5C24.3 26.7 22.8 27.7 21.2 28.4C20.8 28.6 20.4 28.7 20 28.9V26.5C20 25.2 19.6 24.3 18.7 23.7C19.2 23.6 19.7 23.6 20.2 23.5C20.7 23.4 21.1 23.3 21.6 23.1C22.1 22.9 22.6 22.7 23 22.5C23.4 22.3 23.8 21.9 24.2 21.5C24.6 21.1 24.9 20.7 25.1 20.2C25.3 19.7 25.5 19.1 25.7 18.4C25.8 17.7 25.9 16.9 25.9 16.1C25.9 14.5 25.4 13.1 24.3 12C24.8 10.8 24.7 9.4 24.1 7.9H23.7C23.4 7.9 22.9 8 22.2 8.2C21.5 8.5 20.7 8.9 19.8 9.5C18.6 9.2 17.3 9 15.9 9C14.6 9 13.3 9.2 12.1 9.5C11.5 9.1 11 8.8 10.5 8.6C10.2 8.2 9.8 8.1 9.5 8C9.2 7.9 8.9 7.8 8.6 7.8C8.3 7.8 8.2 7.8 8.1 7.8C8 7.8 8 7.8 7.9 7.8C7.3 9.3 7.3 10.6 7.7 11.9C6.6 13 6.1 14.4 6.1 16C6.1 16.8 6.2 17.6 6.3 18.3C6.4 19 6.6 19.6 6.9 20.1C7.1 20.6 7.5 21 7.8 21.4C8.2 21.8 8.6 22.1 9 22.4C9.4 22.6 9.9 22.9 10.4 23C10.9 23.2 11.4 23.3 11.8 23.4C12.3 23.5 12.8 23.6 13.3 23.6C12.4 24.2 12 25.1 12 26.4V28.8C11.5 28.7 11.1 28.5 10.6 28.3C9 27.6 7.6 26.7 6.3 25.4C5.1 24.2 4.1 22.7 3.4 21.1C2.7 19.4 2.3 17.7 2.3 15.9C2.3 14.1 2.7 12.3 3.4 10.7C4.1 9.1 5 7.7 6.3 6.4C7.5 5.2 9 4.2 10.6 3.5C12.3 2.8 14 2.4 15.8 2.4C17.6 2.4 19.4 2.8 21 3.5C22.6 4.2 24 5.1 25.3 6.4C26.5 7.6 27.5 9.1 28.2 10.7C28.9 12.4 29.3 14.1 29.3 15.9C29.3 17.7 28.9 19.5 28.2 21.1C27.7 22.8 26.7 24.3 25.5 25.5Z" ></path>
</symbol>
<symbol viewBox="0 0 32 32" id="linkedin">
<path d="M7.2 3.4C7.2 5.3 5.8 6.8 3.5 6.8C1.4 6.8 0 5.3 0 3.4C0 1.5 1.4 0 3.6 0C5.9 0 7.2 1.5 7.2 3.4ZM0.2 31.6V9.6H7V31.6H0.2ZM11.1 16.6C11.1 13.9 11 11.6 10.9 9.6H16.8L17.1 12.7H17.2C18.1 11.3 20.3 9.1 24 9.1C28.5 9.1 31.9 12.1 31.9 18.6V31.6H25.1V19.4C25.1 16.6 24.1 14.6 21.6 14.6C19.7 14.6 18.6 15.9 18.1 17.2C18 17.6 18 18.2 18 18.9V31.6H11.2V16.6H11.1Z" ></path>
</symbol>
<symbol viewBox="0 0 32 32" id="medium">
<path d="M18.0499 16.0871C18.0499 21.1055 14.0093 25.1738 9.02511 25.1738C4.04097 25.1738 0 21.1046 0 16.0871C0 11.0695 4.04067 7 9.02511 7C14.0096 7 18.0499 11.0686 18.0499 16.0871ZM27.9504 16.0871C27.9504 20.8109 25.9301 24.6418 23.4379 24.6418C20.9457 24.6418 18.9253 20.8109 18.9253 16.0871C18.9253 11.3632 20.9454 7.5323 23.4376 7.5323C25.9298 7.5323 27.9501 11.362 27.9501 16.0871M32 16.0871C32 20.3184 31.2896 23.7508 30.4129 23.7508C29.5363 23.7508 28.8262 20.3194 28.8262 16.0871C28.8262 11.8547 29.5366 8.42334 30.4129 8.42334C31.2892 8.42334 32 11.8544 32 16.0871Z" ></path>
</symbol>
<symbol viewBox="0 0 32 32" id="tiktok">
<path d="M24.1156 5.01333C22.9003 3.626 22.2306 1.84432 22.2311 0H16.7378V22.0444C16.6954 23.2374 16.1918 24.3673 15.3329 25.1963C14.4741 26.0253 13.327 26.4887 12.1333 26.4889C9.60889 26.4889 7.51111 24.4267 7.51111 21.8667C7.51111 18.8089 10.4622 16.5156 13.5022 17.4578V11.84C7.36889 11.0222 2 15.7867 2 21.8667C2 27.7867 6.90667 32 12.1156 32C17.6978 32 22.2311 27.4667 22.2311 21.8667V10.6844C24.4587 12.2842 27.1331 13.1425 29.8756 13.1378V7.64444C29.8756 7.64444 26.5333 7.80444 24.1156 5.01333Z" ></path>
</symbol>
<symbol viewBox="0 0 32 32" id="twitch">
<path d="M15.136 6.288H17.424V13.136H15.136M21.424 6.288H23.712V13.136H21.424M7.712 0L2 5.712V26.288H8.848V32L14.576 26.288H19.136L29.424 16V0M27.136 14.864L22.576 19.424H18L14 23.424V19.424H8.848V2.288H27.136V14.864Z" ></path>
</symbol>
<symbol viewBox="0 0 32 32" id="twitter">
<path d="M32 6.09034C30.8037 6.58879 29.6075 6.98754 28.2118 7.08723C29.6075 6.28972 30.6044 4.99377 31.1028 3.49844C29.8069 4.29595 28.4112 4.79439 26.9159 5.09346C25.8193 3.79751 24.0249 3 22.2305 3C18.6417 3 15.6511 5.89097 15.6511 9.57944C15.6511 10.0779 15.7508 10.5763 15.8505 11.0748C10.3676 10.7757 5.58255 8.1838 2.29283 4.19626C1.6947 5.19315 1.39564 6.28972 1.39564 7.48598C1.39564 9.77882 2.5919 11.7726 4.2866 12.9688C3.19003 12.9688 2.19315 12.6698 1.29595 12.1713V12.271C1.29595 15.4611 3.58879 18.053 6.57944 18.6511C5.98131 18.7508 5.48287 18.8505 4.88474 18.8505C4.48598 18.8505 4.08723 18.8505 3.68847 18.7508C4.48598 21.3427 6.97819 23.2368 9.76947 23.3365C7.57632 25.1308 4.68536 26.1277 1.59502 26.1277C1.09657 26.1277 0.498442 26.1277 0 26.028C2.89097 27.9221 6.38006 29.0187 10.0685 29.0187C22.1308 29.0187 28.7103 19.0498 28.7103 10.3769C28.7103 10.0779 28.7103 9.77882 28.7103 9.57944C30.0062 8.58255 31.1028 7.38629 32 6.09034Z" ></path>
</symbol>
<symbol viewBox="0 0 32 32" id="youtube">
<path fill-rule="evenodd" clip-rule="evenodd" d="M30.6 7.2C29.7 5.6 28.8 5.3 26.9 5.2C25 5.1 20.2 5 16 5C11.8 5 7 5.1 5.1 5.2C3.2 5.3 2.2 5.6 1.4 7.2C0.5 8.7 0 11.4 0 16.2C0 20.9 0.5 23.6 1.4 25.2C2.3 26.8 3.2 27.1 5.1 27.2C7 27.3 11.8 27.4 16 27.4C20.2 27.4 25 27.3 26.9 27.2C28.8 27.1 29.8 26.8 30.6 25.2C31.5 23.6 32 20.9 32 16.2C32 11.4 31.5 8.7 30.6 7.2ZM12.8 22V10.3L21.9 16.2L12.8 22Z"></path>
</symbol>
</defs>
</svg>
